<?xml version="1.0" encoding="utf-8"?>
<!-- Generator: Adobe Illustrator 28.0.0, SVG Export Plug-In . SVG Version: 6.00 Build 0)  -->
<svg version="1.1" id="Layer_1" xmlns="http://www.w3.org/2000/svg" xmlns:xlink="http://www.w3.org/1999/xlink" x="0px" y="0px"
	 viewBox="0 0 20 20" style="enable-background:new 0 0 20 20;" xml:space="preserve">
<style type="text/css">
	.st0{fill:#FFFFFF;}
</style>
<path class="st0" d="M10.1,4c0,0-0.1,0-0.1,0c-2,0.4-3.2,2.4-2.9,4.4c0.1,0.4,0.2,0.8,0.4,1.1L4.8,9.2H4.7C4.3,9.2,4,9.6,4,9.9
	c0,0,0,0.1,0,0.1c0.4,2,2.4,3.2,4.4,2.9c0.4-0.1,0.8-0.2,1.1-0.4l-0.3,2.7v0.1c0,0.4,0.3,0.7,0.7,0.7c0,0,0.1,0,0.1,0
	c2-0.4,3.2-2.4,2.9-4.4c-0.1-0.4-0.2-0.8-0.4-1.1l2.7,0.3h0.1c0.4,0,0.7-0.3,0.7-0.7c0,0,0-0.1,0-0.1c-0.4-2-2.4-3.2-4.4-2.9
	c-0.4,0.1-0.8,0.2-1.1,0.4l0.3-2.7V4.7C10.8,4.3,10.4,4,10.1,4z M10,9.2c0.4,0,0.8,0.3,0.8,0.8c0,0.4-0.3,0.8-0.8,0.8
	c-0.4,0-0.8-0.3-0.8-0.8C9.2,9.6,9.6,9.2,10,9.2z"/>
</svg>
